{"title":"A.Haunting.in.Salem.2011.720p.BRRip.x264.Feel-Free","uid":6867275,"size":2195107002,"categoryP":"video","categoryS":"hd___movies","magnet":"?xt=urn:btih:8ea2067a1dba66162cfb17d963a8fe39e0210714&amp;dn=A.Haunting.in.Salem.2011.720p.BRRip.x264.Feel-Free&amp;tr=udp%3A%2F%2Ftracker.openbittorrent.com%3A80&amp;tr=udp%3A%2F%2Fopen.demonii.com%3A1337&amp;tr=udp%3A%2F%2Ftracker.coppersurfer.tk%3A6969&amp;tr=udp%3A%2F%2Fexodus.desync.com%3A6969","seeders":2,"leechers":0,"uploader":".BONE.","files":8,"time":1323150157,"description":"Genre:Horror\nLanguage:English\n &lt;a href=&quot;\nhttp://www.imdb.com/title/tt1912981/&quot; rel=&quot;nofollow&quot; target=&quot;_NEW&quot;&gt;\nhttp://www.imdb.com/title/tt1912981/&lt;/a&gt;\n\nSource:1080p.BluRay.x264.aAF Thanks!\n\nFormat : MPEG-4\nFormat profile : Base Media\nCodec ID : isom\nFile size : 2.04 GiB\nDuration : 1h 25mn\nOverall bit rate : 3 404 Kbps\n\nVideo\nID : 1\nFormat : AVC\nFormat/Info : Advanced Video Codec\nFormat profile : &lt;a class=&quot;__cf_email__&quot; href=&quot;/cdn-cgi/l/email-protection&quot; data-cfemail=&quot;3078595758707c051e01&quot;&gt;[email&amp;#160;protected]&lt;/a&gt;&lt;script cf-hash='f9e31' type=&quot;text/javascript&quot;&gt;\n/* &lt;![CDATA[ */!function(){try{var t=&quot;currentScript&quot;in document?document.currentScript:function(){for(var t=document.getElementsByTagName(&quot;script&quot;),e=t.length;e--;)if(t[e].getAttribute(&quot;cf-hash&quot;))return t[e]}();if(t&amp;&amp;t.previousSibling){var e,r,n,i,c=t.previousSibling,a=c.getAttribute(&quot;data-cfemail&quot;);if(a){for(e=&quot;&quot;,r=parseInt(a.substr(0,2),16),n=2;a.length-n;n+=2)i=parseInt(a.substr(n,2),16)^r,e+=String.fromCharCode(i);e=document.createTextNode(e),c.parentNode.replaceChild(e,c)}}}catch(u){}}();/* ]]&gt; */&lt;/script&gt;\nFormat settings, CABAC : Yes\nFormat settings, ReFrames : 3 frames\nFormat settings, GOP : N=1\nCodec ID : avc1\nCodec ID/Info : Advanced Video Coding\nDuration : 1h 25mn\nBit rate mode : Variable\nBit rate : 3 000 Kbps\nMaximum bit rate : 14.6 Mbps\nWidth : 1 280 pixels\nHeight : 720 pixels\nDisplay aspect ratio : 16:9\nFrame rate mode : Constant\nFrame rate : 23.976 fps\nColor space : YUV\nChroma subsampling : 4:2:0\nBit depth : 8 bits\nScan type : Progressive\nBits/(Pixel*Frame) : 0.136\nStream size : 1.77 GiB (87%)\nWriting library : x264\n\n\nAudio\nID : 2\nFormat : AAC\nFormat/Info : Advanced Audio Codec\nFormat version : Version 4\nFormat profile : LC\nFormat settings, SBR : No\nCodec ID : 40\nDuration : 1h 25mn\nBit rate mode : Variable\nBit rate : 446 Kbps\nMaximum bit rate : 516 Kbps\nChannel(s) : 6 channels\nChannel positions : Front: L C R, Side: L R, LFE\nSampling rate : 48.0 KHz\nStream size : 274 MiB (13%)\n\n\nPlot:\nThe new town sheriff moves into a large creepy old house with his family. It seems that in the town of Salem there's a special house for the sheriff to live in gratis","torrent":{"xt":"urn:btih:8ea2067a1dba66162cfb17d963a8fe39e0210714","amp;dn":"A.Haunting.in.Salem.2011.720p.BRRip.x264.Feel-Free","amp;tr":["udp%3A%2F%2Ftracker.openbittorrent.com%3A80","udp%3A%2F%2Fopen.demonii.com%3A1337","udp%3A%2F%2Ftracker.coppersurfer.tk%3A6969","udp%3A%2F%2Fexodus.desync.com%3A6969"],"infoHash":"8ea2067a1dba66162cfb17d963a8fe39e0210714","infoHashBuffer":{"type":"Buffer","data":[142,162,6,122,29,186,102,22,44,251,23,217,99,168,254,57,224,33,7,20]},"announce":[],"urlList":[]}}